# xmcd
#
# Track frame offsets: 
#        150
#        18077
#        36417
#        55872
#        76197
#        97115
#        118350
#        134037
#        156877
#        175692
#
# Disc length: 2600 seconds
#
# Revision: 42
# Processed by: cddbd v1.5.2PL0 Copyright (c) Steve Scherf et al.
# Submitted via: ExactAudioCopyFreeDBPlugin 1.0
#
DISCID=830a260a
DTITLE=周杰倫 - 杰倫
DYEAR=2000
DGENRE=Pop
TTITLE0=可愛女人
TTITLE1=完美主義
TTITLE2=星晴
TTITLE3=娘子
TTITLE4=鬥牛
TTITLE5=黑色幽默
TTITLE6=伊斯坦堡
TTITLE7=印地安老斑鳩
TTITLE8=龍捲風
TTITLE9=反方向的鐘
EXTD=
EXTT0=
EXTT1=
EXTT2=
EXTT3=
EXTT4=
EXTT5=
EXTT6=
EXTT7=
EXTT8=
EXTT9=
PLAYORDER=
